<mxfile host="65bd71144e">
    <diagram name="Page-1" id="uuYnXflrdHxg2Qoy3TfY">
        <mxGraphModel dx="1682" dy="563" grid="1" gridSize="10" guides="1" tooltips="1" connect="1" arrows="1" fold="1" page="1" pageScale="1" pageWidth="850" pageHeight="1100" math="0" shadow="0">
            <root>
                <mxCell id="0"/>
                <mxCell id="1" parent="0"/>
                <mxCell id="iXEqG_oq-R5Z8Uxtua_U-29" value="" style="group" parent="1" vertex="1" connectable="0">
                    <mxGeometry y="40" width="680" height="80" as="geometry"/>
                </mxCell>
                <mxCell id="iXEqG_oq-R5Z8Uxtua_U-26" value="" style="group" parent="iXEqG_oq-R5Z8Uxtua_U-29" vertex="1" connectable="0">
                    <mxGeometry width="507.4626865671642" height="80" as="geometry"/>
                </mxCell>
                <mxCell id="iXEqG_oq-R5Z8Uxtua_U-16" value="" style="rounded=0;whiteSpace=wrap;html=1;fillColor=#76608a;strokeColor=#432D57;fontColor=#ffffff;" parent="iXEqG_oq-R5Z8Uxtua_U-26" vertex="1">
                    <mxGeometry y="40" width="487.1641791044776" height="40" as="geometry"/>
                </mxCell>
                <mxCell id="iXEqG_oq-R5Z8Uxtua_U-17" value="User" style="rounded=0;whiteSpace=wrap;html=1;fillColor=#76608a;strokeColor=#432D57;fontColor=#ffffff;" parent="iXEqG_oq-R5Z8Uxtua_U-26" vertex="1">
                    <mxGeometry width="121.7910447761194" height="40" as="geometry"/>
                </mxCell>
                <mxCell id="iXEqG_oq-R5Z8Uxtua_U-19" value="&lt;u&gt;user_id (PK)&lt;/u&gt;" style="rounded=0;whiteSpace=wrap;html=1;fillColor=#76608a;strokeColor=#432D57;fontColor=#ffffff;" parent="iXEqG_oq-R5Z8Uxtua_U-26" vertex="1">
                    <mxGeometry y="40" width="81.19402985074628" height="40" as="geometry"/>
                </mxCell>
                <mxCell id="iXEqG_oq-R5Z8Uxtua_U-20" value="first_name" style="rounded=0;whiteSpace=wrap;html=1;fillColor=#76608a;strokeColor=#432D57;fontColor=#ffffff;" parent="iXEqG_oq-R5Z8Uxtua_U-26" vertex="1">
                    <mxGeometry x="81.19402985074628" y="40" width="81.19402985074628" height="40" as="geometry"/>
                </mxCell>
                <mxCell id="iXEqG_oq-R5Z8Uxtua_U-22" value="last_name" style="rounded=0;whiteSpace=wrap;html=1;fillColor=#76608a;strokeColor=#432D57;fontColor=#ffffff;" parent="iXEqG_oq-R5Z8Uxtua_U-26" vertex="1">
                    <mxGeometry x="162.38805970149255" y="40" width="81.19402985074628" height="40" as="geometry"/>
                </mxCell>
                <mxCell id="iXEqG_oq-R5Z8Uxtua_U-23" value="email" style="rounded=0;whiteSpace=wrap;html=1;fillColor=#76608a;strokeColor=#432D57;fontColor=#ffffff;" parent="iXEqG_oq-R5Z8Uxtua_U-26" vertex="1">
                    <mxGeometry x="243.5820895522388" y="40" width="81.19402985074628" height="40" as="geometry"/>
                </mxCell>
                <mxCell id="iXEqG_oq-R5Z8Uxtua_U-24" value="date_ofBirth" style="rounded=0;whiteSpace=wrap;html=1;fillColor=#76608a;strokeColor=#432D57;fontColor=#ffffff;" parent="iXEqG_oq-R5Z8Uxtua_U-26" vertex="1">
                    <mxGeometry x="324.7761194029851" y="40" width="81.19402985074628" height="40" as="geometry"/>
                </mxCell>
                <mxCell id="iXEqG_oq-R5Z8Uxtua_U-25" value="creation_date" style="rounded=0;whiteSpace=wrap;html=1;fillColor=#76608a;strokeColor=#432D57;fontColor=#ffffff;" parent="iXEqG_oq-R5Z8Uxtua_U-26" vertex="1">
                    <mxGeometry x="405.97014925373134" y="40" width="101.49253731343283" height="40" as="geometry"/>
                </mxCell>
                <mxCell id="iXEqG_oq-R5Z8Uxtua_U-27" value="last_loggedIn" style="rounded=0;whiteSpace=wrap;html=1;fillColor=#76608a;strokeColor=#432D57;fontColor=#ffffff;" parent="iXEqG_oq-R5Z8Uxtua_U-29" vertex="1">
                    <mxGeometry x="507.4626865671642" y="40" width="91.34328358208955" height="40" as="geometry"/>
                </mxCell>
                <mxCell id="iXEqG_oq-R5Z8Uxtua_U-28" value="type" style="rounded=0;whiteSpace=wrap;html=1;fillColor=#76608a;strokeColor=#432D57;fontColor=#ffffff;" parent="iXEqG_oq-R5Z8Uxtua_U-29" vertex="1">
                    <mxGeometry x="598.8059701492538" y="40" width="81.19402985074628" height="40" as="geometry"/>
                </mxCell>
                <mxCell id="iXEqG_oq-R5Z8Uxtua_U-30" value="" style="group" parent="1" vertex="1" connectable="0">
                    <mxGeometry y="160" width="670" height="100" as="geometry"/>
                </mxCell>
                <mxCell id="iXEqG_oq-R5Z8Uxtua_U-31" value="" style="group" parent="iXEqG_oq-R5Z8Uxtua_U-30" vertex="1" connectable="0">
                    <mxGeometry width="500" height="100" as="geometry"/>
                </mxCell>
                <mxCell id="iXEqG_oq-R5Z8Uxtua_U-32" value="" style="rounded=0;whiteSpace=wrap;html=1;container=0;fillColor=#76608a;strokeColor=#432D57;fontColor=#ffffff;" parent="iXEqG_oq-R5Z8Uxtua_U-31" vertex="1">
                    <mxGeometry y="40" width="160" height="40" as="geometry"/>
                </mxCell>
                <mxCell id="iXEqG_oq-R5Z8Uxtua_U-33" value="Admin" style="rounded=0;whiteSpace=wrap;html=1;container=0;fillColor=#76608a;strokeColor=#432D57;fontColor=#ffffff;" parent="iXEqG_oq-R5Z8Uxtua_U-31" vertex="1">
                    <mxGeometry width="120" height="40" as="geometry"/>
                </mxCell>
                <mxCell id="iXEqG_oq-R5Z8Uxtua_U-34" value="&lt;u&gt;admin_id(PK)&lt;/u&gt;" style="rounded=0;whiteSpace=wrap;html=1;container=0;fillColor=#76608a;strokeColor=#432D57;fontColor=#ffffff;" parent="iXEqG_oq-R5Z8Uxtua_U-31" vertex="1">
                    <mxGeometry y="40" width="80" height="40" as="geometry"/>
                </mxCell>
                <mxCell id="iXEqG_oq-R5Z8Uxtua_U-35" value="user_id (FK)" style="rounded=0;whiteSpace=wrap;html=1;container=0;fillColor=#76608a;strokeColor=#432D57;fontColor=#ffffff;" parent="iXEqG_oq-R5Z8Uxtua_U-31" vertex="1">
                    <mxGeometry x="80" y="40" width="80" height="40" as="geometry"/>
                </mxCell>
                <mxCell id="Wk7rJnfrZnfArUPQoWpk-12" value="Instructor" style="rounded=0;whiteSpace=wrap;html=1;container=0;fillColor=#76608a;strokeColor=#432D57;fontColor=#ffffff;" parent="iXEqG_oq-R5Z8Uxtua_U-31" vertex="1">
                    <mxGeometry x="250" width="120" height="40" as="geometry"/>
                </mxCell>
                <mxCell id="Wk7rJnfrZnfArUPQoWpk-13" value="&lt;u&gt;inst_id(PK)&lt;/u&gt;" style="rounded=0;whiteSpace=wrap;html=1;container=0;fillColor=#76608a;strokeColor=#432D57;fontColor=#ffffff;" parent="iXEqG_oq-R5Z8Uxtua_U-31" vertex="1">
                    <mxGeometry x="250" y="40" width="80" height="40" as="geometry"/>
                </mxCell>
                <mxCell id="Wk7rJnfrZnfArUPQoWpk-14" value="user_id (FK)" style="rounded=0;whiteSpace=wrap;html=1;container=0;fillColor=#76608a;strokeColor=#432D57;fontColor=#ffffff;" parent="iXEqG_oq-R5Z8Uxtua_U-31" vertex="1">
                    <mxGeometry x="410" y="40" width="80" height="40" as="geometry"/>
                </mxCell>
                <mxCell id="Wk7rJnfrZnfArUPQoWpk-103" value="" style="curved=1;endArrow=classic;html=1;rounded=0;entryX=0;entryY=1;entryDx=0;entryDy=0;fillColor=#0050ef;strokeColor=#001DBC;" parent="iXEqG_oq-R5Z8Uxtua_U-31" target="iXEqG_oq-R5Z8Uxtua_U-19" edge="1">
                    <mxGeometry width="50" height="50" relative="1" as="geometry">
                        <mxPoint x="160" y="60" as="sourcePoint"/>
                        <mxPoint x="30" y="-40" as="targetPoint"/>
                        <Array as="points">
                            <mxPoint x="210" y="60"/>
                            <mxPoint x="170"/>
                        </Array>
                    </mxGeometry>
                </mxCell>
                <mxCell id="Wk7rJnfrZnfArUPQoWpk-112" value="specialization" style="rounded=0;whiteSpace=wrap;html=1;container=0;fillColor=#76608a;strokeColor=#432D57;fontColor=#ffffff;" parent="iXEqG_oq-R5Z8Uxtua_U-31" vertex="1">
                    <mxGeometry x="330" y="40" width="80" height="40" as="geometry"/>
                </mxCell>
                <mxCell id="Wk7rJnfrZnfArUPQoWpk-113" style="edgeStyle=orthogonalEdgeStyle;rounded=0;orthogonalLoop=1;jettySize=auto;html=1;exitX=0.5;exitY=1;exitDx=0;exitDy=0;fillColor=#76608a;strokeColor=#432D57;" parent="iXEqG_oq-R5Z8Uxtua_U-31" source="Wk7rJnfrZnfArUPQoWpk-112" target="Wk7rJnfrZnfArUPQoWpk-112" edge="1">
                    <mxGeometry relative="1" as="geometry"/>
                </mxCell>
                <mxCell id="Wk7rJnfrZnfArUPQoWpk-27" value="" style="group" parent="1" vertex="1" connectable="0">
                    <mxGeometry y="840" width="670" height="80" as="geometry"/>
                </mxCell>
                <mxCell id="Wk7rJnfrZnfArUPQoWpk-28" value="" style="group" parent="Wk7rJnfrZnfArUPQoWpk-27" vertex="1" connectable="0">
                    <mxGeometry width="500" height="80" as="geometry"/>
                </mxCell>
                <mxCell id="Wk7rJnfrZnfArUPQoWpk-29" value="" style="rounded=0;whiteSpace=wrap;html=1;fillColor=#647687;strokeColor=#314354;fontColor=#ffffff;" parent="Wk7rJnfrZnfArUPQoWpk-28" vertex="1">
                    <mxGeometry y="40" width="330" height="40" as="geometry"/>
                </mxCell>
                <mxCell id="Wk7rJnfrZnfArUPQoWpk-30" value="Submission" style="rounded=0;whiteSpace=wrap;html=1;fillColor=#647687;strokeColor=#314354;fontColor=#ffffff;" parent="Wk7rJnfrZnfArUPQoWpk-28" vertex="1">
                    <mxGeometry width="120" height="40" as="geometry"/>
                </mxCell>
                <mxCell id="Wk7rJnfrZnfArUPQoWpk-31" value="&lt;u&gt;sub_id (PK)&lt;/u&gt;" style="rounded=0;whiteSpace=wrap;html=1;fillColor=#647687;strokeColor=#314354;fontColor=#ffffff;" parent="Wk7rJnfrZnfArUPQoWpk-28" vertex="1">
                    <mxGeometry y="40" width="80" height="40" as="geometry"/>
                </mxCell>
                <mxCell id="Wk7rJnfrZnfArUPQoWpk-32" value="assig_id (FK)" style="rounded=0;whiteSpace=wrap;html=1;fillColor=#647687;strokeColor=#314354;fontColor=#ffffff;" parent="Wk7rJnfrZnfArUPQoWpk-28" vertex="1">
                    <mxGeometry x="80" y="40" width="80" height="40" as="geometry"/>
                </mxCell>
                <mxCell id="Wk7rJnfrZnfArUPQoWpk-33" value="std_id (FK)" style="rounded=0;whiteSpace=wrap;html=1;fillColor=#647687;strokeColor=#314354;fontColor=#ffffff;" parent="Wk7rJnfrZnfArUPQoWpk-28" vertex="1">
                    <mxGeometry x="160" y="40" width="80" height="40" as="geometry"/>
                </mxCell>
                <mxCell id="Wk7rJnfrZnfArUPQoWpk-34" value="submission_date" style="rounded=0;whiteSpace=wrap;html=1;fillColor=#647687;strokeColor=#314354;fontColor=#ffffff;" parent="Wk7rJnfrZnfArUPQoWpk-28" vertex="1">
                    <mxGeometry x="240" y="40" width="100" height="40" as="geometry"/>
                </mxCell>
                <mxCell id="Wk7rJnfrZnfArUPQoWpk-39" value="" style="group" parent="1" vertex="1" connectable="0">
                    <mxGeometry y="720" width="670" height="80" as="geometry"/>
                </mxCell>
                <mxCell id="Wk7rJnfrZnfArUPQoWpk-40" value="" style="group" parent="Wk7rJnfrZnfArUPQoWpk-39" vertex="1" connectable="0">
                    <mxGeometry width="500" height="80" as="geometry"/>
                </mxCell>
                <mxCell id="Wk7rJnfrZnfArUPQoWpk-41" value="" style="rounded=0;whiteSpace=wrap;html=1;fillColor=#647687;strokeColor=#314354;fontColor=#ffffff;" parent="Wk7rJnfrZnfArUPQoWpk-40" vertex="1">
                    <mxGeometry y="40" width="400" height="40" as="geometry"/>
                </mxCell>
                <mxCell id="Wk7rJnfrZnfArUPQoWpk-42" value="Assignment&amp;nbsp;" style="rounded=0;whiteSpace=wrap;html=1;fillColor=#647687;strokeColor=#314354;fontColor=#ffffff;" parent="Wk7rJnfrZnfArUPQoWpk-40" vertex="1">
                    <mxGeometry width="120" height="40" as="geometry"/>
                </mxCell>
                <mxCell id="Wk7rJnfrZnfArUPQoWpk-43" value="&lt;u&gt;assig_id (PK)&lt;/u&gt;" style="rounded=0;whiteSpace=wrap;html=1;fillColor=#647687;strokeColor=#314354;fontColor=#ffffff;" parent="Wk7rJnfrZnfArUPQoWpk-40" vertex="1">
                    <mxGeometry y="40" width="80" height="40" as="geometry"/>
                </mxCell>
                <mxCell id="Wk7rJnfrZnfArUPQoWpk-44" value="course_id (FK)" style="rounded=0;whiteSpace=wrap;html=1;fillColor=#647687;strokeColor=#314354;fontColor=#ffffff;" parent="Wk7rJnfrZnfArUPQoWpk-40" vertex="1">
                    <mxGeometry x="80" y="40" width="80" height="40" as="geometry"/>
                </mxCell>
                <mxCell id="Wk7rJnfrZnfArUPQoWpk-45" value="description" style="rounded=0;whiteSpace=wrap;html=1;fillColor=#647687;strokeColor=#314354;fontColor=#ffffff;" parent="Wk7rJnfrZnfArUPQoWpk-40" vertex="1">
                    <mxGeometry x="160" y="40" width="80" height="40" as="geometry"/>
                </mxCell>
                <mxCell id="Wk7rJnfrZnfArUPQoWpk-46" value="deadline" style="rounded=0;whiteSpace=wrap;html=1;fillColor=#647687;strokeColor=#314354;fontColor=#ffffff;" parent="Wk7rJnfrZnfArUPQoWpk-40" vertex="1">
                    <mxGeometry x="240" y="40" width="80" height="40" as="geometry"/>
                </mxCell>
                <mxCell id="Wk7rJnfrZnfArUPQoWpk-47" value="upload_date" style="rounded=0;whiteSpace=wrap;html=1;fillColor=#647687;strokeColor=#314354;fontColor=#ffffff;" parent="Wk7rJnfrZnfArUPQoWpk-40" vertex="1">
                    <mxGeometry x="320" y="40" width="80" height="40" as="geometry"/>
                </mxCell>
                <mxCell id="Wk7rJnfrZnfArUPQoWpk-51" value="" style="group" parent="1" vertex="1" connectable="0">
                    <mxGeometry y="560" width="680" height="80" as="geometry"/>
                </mxCell>
                <mxCell id="Wk7rJnfrZnfArUPQoWpk-52" value="" style="group" parent="Wk7rJnfrZnfArUPQoWpk-51" vertex="1" connectable="0">
                    <mxGeometry width="552.8359701492539" height="80" as="geometry"/>
                </mxCell>
                <mxCell id="Wk7rJnfrZnfArUPQoWpk-53" value="" style="rounded=0;whiteSpace=wrap;html=1;fillColor=#6d8764;strokeColor=#3A5431;fontColor=#ffffff;" parent="Wk7rJnfrZnfArUPQoWpk-52" vertex="1">
                    <mxGeometry y="40" width="487.1641791044776" height="40" as="geometry"/>
                </mxCell>
                <mxCell id="Wk7rJnfrZnfArUPQoWpk-54" value="Schedule" style="rounded=0;whiteSpace=wrap;html=1;fillColor=#6d8764;strokeColor=#3A5431;fontColor=#ffffff;" parent="Wk7rJnfrZnfArUPQoWpk-52" vertex="1">
                    <mxGeometry width="121.7910447761194" height="40" as="geometry"/>
                </mxCell>
                <mxCell id="Wk7rJnfrZnfArUPQoWpk-55" value="&lt;u&gt;schedule_id&lt;/u&gt;" style="rounded=0;whiteSpace=wrap;html=1;fillColor=#6d8764;strokeColor=#3A5431;fontColor=#ffffff;" parent="Wk7rJnfrZnfArUPQoWpk-52" vertex="1">
                    <mxGeometry y="40" width="81.19402985074628" height="40" as="geometry"/>
                </mxCell>
                <mxCell id="Wk7rJnfrZnfArUPQoWpk-56" value="course_id (FK)" style="rounded=0;whiteSpace=wrap;html=1;fillColor=#6d8764;strokeColor=#3A5431;fontColor=#ffffff;" parent="Wk7rJnfrZnfArUPQoWpk-52" vertex="1">
                    <mxGeometry x="81.19402985074628" y="40" width="81.19402985074628" height="40" as="geometry"/>
                </mxCell>
                <mxCell id="Wk7rJnfrZnfArUPQoWpk-57" value="session_duration" style="rounded=0;whiteSpace=wrap;html=1;fillColor=#6d8764;strokeColor=#3A5431;fontColor=#ffffff;" parent="Wk7rJnfrZnfArUPQoWpk-52" vertex="1">
                    <mxGeometry x="162.39" y="40" width="107.61" height="40" as="geometry"/>
                </mxCell>
                <mxCell id="Wk7rJnfrZnfArUPQoWpk-58" value="no_ofSessions" style="rounded=0;whiteSpace=wrap;html=1;fillColor=#6d8764;strokeColor=#3A5431;fontColor=#ffffff;" parent="Wk7rJnfrZnfArUPQoWpk-52" vertex="1">
                    <mxGeometry x="270" y="40" width="110" height="40" as="geometry"/>
                </mxCell>
                <mxCell id="Wk7rJnfrZnfArUPQoWpk-60" value="end_date" style="rounded=0;whiteSpace=wrap;html=1;fillColor=#6d8764;strokeColor=#3A5431;fontColor=#ffffff;" parent="Wk7rJnfrZnfArUPQoWpk-52" vertex="1">
                    <mxGeometry x="370" y="40" width="91.49" height="40" as="geometry"/>
                </mxCell>
                <mxCell id="Wk7rJnfrZnfArUPQoWpk-61" value="start_date" style="rounded=0;whiteSpace=wrap;html=1;fillColor=#6d8764;strokeColor=#3A5431;fontColor=#ffffff;" parent="Wk7rJnfrZnfArUPQoWpk-52" vertex="1">
                    <mxGeometry x="461.49268656716424" y="40" width="91.34328358208955" height="40" as="geometry"/>
                </mxCell>
                <mxCell id="Wk7rJnfrZnfArUPQoWpk-63" value="" style="group" parent="1" vertex="1" connectable="0">
                    <mxGeometry y="400" width="680" height="80" as="geometry"/>
                </mxCell>
                <mxCell id="Wk7rJnfrZnfArUPQoWpk-64" value="" style="group" parent="Wk7rJnfrZnfArUPQoWpk-63" vertex="1" connectable="0">
                    <mxGeometry width="507.4626865671642" height="80" as="geometry"/>
                </mxCell>
                <mxCell id="Wk7rJnfrZnfArUPQoWpk-117" value="" style="group" parent="Wk7rJnfrZnfArUPQoWpk-64" vertex="1" connectable="0">
                    <mxGeometry width="405.9701492537314" height="80" as="geometry"/>
                </mxCell>
                <mxCell id="Wk7rJnfrZnfArUPQoWpk-65" value="" style="rounded=0;whiteSpace=wrap;html=1;fillColor=#6d8764;strokeColor=#3A5431;fontColor=#ffffff;" parent="Wk7rJnfrZnfArUPQoWpk-117" vertex="1">
                    <mxGeometry y="40" width="400" height="40" as="geometry"/>
                </mxCell>
                <mxCell id="Wk7rJnfrZnfArUPQoWpk-66" value="Content" style="rounded=0;whiteSpace=wrap;html=1;fillColor=#6d8764;strokeColor=#3A5431;fontColor=#ffffff;" parent="Wk7rJnfrZnfArUPQoWpk-117" vertex="1">
                    <mxGeometry width="121.7910447761194" height="40" as="geometry"/>
                </mxCell>
                <mxCell id="Wk7rJnfrZnfArUPQoWpk-67" value="&lt;u&gt;content_id&lt;/u&gt;" style="rounded=0;whiteSpace=wrap;html=1;fillColor=#6d8764;strokeColor=#3A5431;fontColor=#ffffff;" parent="Wk7rJnfrZnfArUPQoWpk-117" vertex="1">
                    <mxGeometry y="40" width="81.19402985074628" height="40" as="geometry"/>
                </mxCell>
                <mxCell id="Wk7rJnfrZnfArUPQoWpk-68" value="update_date" style="rounded=0;whiteSpace=wrap;html=1;fillColor=#6d8764;strokeColor=#3A5431;fontColor=#ffffff;" parent="Wk7rJnfrZnfArUPQoWpk-117" vertex="1">
                    <mxGeometry x="81.19402985074628" y="40" width="81.19402985074628" height="40" as="geometry"/>
                </mxCell>
                <mxCell id="Wk7rJnfrZnfArUPQoWpk-69" value="upload_date" style="rounded=0;whiteSpace=wrap;html=1;fillColor=#6d8764;strokeColor=#3A5431;fontColor=#ffffff;" parent="Wk7rJnfrZnfArUPQoWpk-117" vertex="1">
                    <mxGeometry x="162.38805970149255" y="40" width="81.19402985074628" height="40" as="geometry"/>
                </mxCell>
                <mxCell id="Wk7rJnfrZnfArUPQoWpk-70" value="content_desc" style="rounded=0;whiteSpace=wrap;html=1;fillColor=#6d8764;strokeColor=#3A5431;fontColor=#ffffff;" parent="Wk7rJnfrZnfArUPQoWpk-117" vertex="1">
                    <mxGeometry x="243.5820895522388" y="40" width="81.19402985074628" height="40" as="geometry"/>
                </mxCell>
                <mxCell id="Wk7rJnfrZnfArUPQoWpk-71" value="course_id(FK)" style="rounded=0;whiteSpace=wrap;html=1;fillColor=#6d8764;strokeColor=#3A5431;fontColor=#ffffff;" parent="Wk7rJnfrZnfArUPQoWpk-117" vertex="1">
                    <mxGeometry x="324.7761194029851" y="40" width="81.19402985074628" height="40" as="geometry"/>
                </mxCell>
                <mxCell id="Wk7rJnfrZnfArUPQoWpk-75" value="" style="group" parent="1" vertex="1" connectable="0">
                    <mxGeometry y="280" width="785.9701492537314" height="110" as="geometry"/>
                </mxCell>
                <mxCell id="Wk7rJnfrZnfArUPQoWpk-76" value="" style="group" parent="Wk7rJnfrZnfArUPQoWpk-75" vertex="1" connectable="0">
                    <mxGeometry width="775.9701492537314" height="100" as="geometry"/>
                </mxCell>
                <mxCell id="Wk7rJnfrZnfArUPQoWpk-78" value="Course" style="rounded=0;whiteSpace=wrap;html=1;fillColor=#6d8764;strokeColor=#3A5431;fontColor=#ffffff;" parent="Wk7rJnfrZnfArUPQoWpk-76" vertex="1">
                    <mxGeometry width="121.7910447761194" height="40" as="geometry"/>
                </mxCell>
                <mxCell id="Wk7rJnfrZnfArUPQoWpk-79" value="&lt;u&gt;course_id&lt;/u&gt;" style="rounded=0;whiteSpace=wrap;html=1;fillColor=#6d8764;strokeColor=#3A5431;fontColor=#ffffff;" parent="Wk7rJnfrZnfArUPQoWpk-76" vertex="1">
                    <mxGeometry y="40" width="81.19402985074628" height="40" as="geometry"/>
                </mxCell>
                <mxCell id="Wk7rJnfrZnfArUPQoWpk-80" value="description" style="rounded=0;whiteSpace=wrap;html=1;fillColor=#6d8764;strokeColor=#3A5431;fontColor=#ffffff;" parent="Wk7rJnfrZnfArUPQoWpk-76" vertex="1">
                    <mxGeometry x="81.19402985074628" y="40" width="81.19402985074628" height="40" as="geometry"/>
                </mxCell>
                <mxCell id="Wk7rJnfrZnfArUPQoWpk-81" value="tittle" style="rounded=0;whiteSpace=wrap;html=1;fillColor=#6d8764;strokeColor=#3A5431;fontColor=#ffffff;" parent="Wk7rJnfrZnfArUPQoWpk-76" vertex="1">
                    <mxGeometry x="162.38805970149255" y="40" width="81.19402985074628" height="40" as="geometry"/>
                </mxCell>
                <mxCell id="3" value="" style="group" vertex="1" connectable="0" parent="Wk7rJnfrZnfArUPQoWpk-76">
                    <mxGeometry x="370" y="20" width="405.9701492537314" height="80" as="geometry"/>
                </mxCell>
                <mxCell id="20" value="" style="group" vertex="1" connectable="0" parent="3">
                    <mxGeometry width="162.38805970149255" height="80" as="geometry"/>
                </mxCell>
                <mxCell id="4" value="" style="rounded=0;whiteSpace=wrap;html=1;fillColor=#647687;strokeColor=#314354;fontColor=#ffffff;" vertex="1" parent="20">
                    <mxGeometry y="40" width="160" height="40" as="geometry"/>
                </mxCell>
                <mxCell id="5" value="Enrollment" style="rounded=0;whiteSpace=wrap;html=1;fillColor=#647687;strokeColor=#314354;fontColor=#ffffff;" vertex="1" parent="20">
                    <mxGeometry width="121.7910447761194" height="40" as="geometry"/>
                </mxCell>
                <mxCell id="6" value="course_id (FK)" style="rounded=0;whiteSpace=wrap;html=1;fillColor=#647687;strokeColor=#314354;fontColor=#ffffff;" vertex="1" parent="20">
                    <mxGeometry y="40" width="81.19402985074628" height="40" as="geometry"/>
                </mxCell>
                <mxCell id="7" value="std_id (FK)" style="rounded=0;whiteSpace=wrap;html=1;fillColor=#647687;strokeColor=#314354;fontColor=#ffffff;" vertex="1" parent="20">
                    <mxGeometry x="81.19402985074628" y="40" width="81.19402985074628" height="40" as="geometry"/>
                </mxCell>
                <mxCell id="24" value="" style="curved=1;endArrow=classic;html=1;fillColor=#0050ef;strokeColor=#001DBC;exitX=0;exitY=0.5;exitDx=0;exitDy=0;entryX=0.75;entryY=1;entryDx=0;entryDy=0;" edge="1" parent="Wk7rJnfrZnfArUPQoWpk-76" source="6" target="Wk7rJnfrZnfArUPQoWpk-79">
                    <mxGeometry width="50" height="50" relative="1" as="geometry">
                        <mxPoint x="310" y="90" as="sourcePoint"/>
                        <mxPoint x="360" y="40" as="targetPoint"/>
                        <Array as="points">
                            <mxPoint x="360" y="90"/>
                            <mxPoint x="290" y="130"/>
                        </Array>
                    </mxGeometry>
                </mxCell>
                <mxCell id="Wk7rJnfrZnfArUPQoWpk-90" value="" style="group" parent="1" vertex="1" connectable="0">
                    <mxGeometry y="960" width="670" height="80" as="geometry"/>
                </mxCell>
                <mxCell id="Wk7rJnfrZnfArUPQoWpk-91" value="" style="group" parent="Wk7rJnfrZnfArUPQoWpk-90" vertex="1" connectable="0">
                    <mxGeometry width="500" height="80" as="geometry"/>
                </mxCell>
                <mxCell id="Wk7rJnfrZnfArUPQoWpk-92" value="" style="rounded=0;whiteSpace=wrap;html=1;fillColor=#6d8764;strokeColor=#3A5431;fontColor=#ffffff;" parent="Wk7rJnfrZnfArUPQoWpk-91" vertex="1">
                    <mxGeometry y="40" width="400" height="40" as="geometry"/>
                </mxCell>
                <mxCell id="Wk7rJnfrZnfArUPQoWpk-93" value="Certification" style="rounded=0;whiteSpace=wrap;html=1;fillColor=#6d8764;strokeColor=#3A5431;fontColor=#ffffff;" parent="Wk7rJnfrZnfArUPQoWpk-91" vertex="1">
                    <mxGeometry width="120" height="40" as="geometry"/>
                </mxCell>
                <mxCell id="Wk7rJnfrZnfArUPQoWpk-94" value="&lt;u&gt;certificate_id (PK)&lt;/u&gt;" style="rounded=0;whiteSpace=wrap;html=1;fillColor=#6d8764;strokeColor=#3A5431;fontColor=#ffffff;" parent="Wk7rJnfrZnfArUPQoWpk-91" vertex="1">
                    <mxGeometry y="40" width="80" height="40" as="geometry"/>
                </mxCell>
                <mxCell id="Wk7rJnfrZnfArUPQoWpk-96" value="course_id (FK)" style="rounded=0;whiteSpace=wrap;html=1;fillColor=#6d8764;strokeColor=#3A5431;fontColor=#ffffff;" parent="Wk7rJnfrZnfArUPQoWpk-91" vertex="1">
                    <mxGeometry x="80" y="40" width="80" height="40" as="geometry"/>
                </mxCell>
                <mxCell id="Wk7rJnfrZnfArUPQoWpk-97" value="description" style="rounded=0;whiteSpace=wrap;html=1;fillColor=#6d8764;strokeColor=#3A5431;fontColor=#ffffff;" parent="Wk7rJnfrZnfArUPQoWpk-91" vertex="1">
                    <mxGeometry x="240" y="40" width="80" height="40" as="geometry"/>
                </mxCell>
                <mxCell id="Wk7rJnfrZnfArUPQoWpk-98" value="ranking" style="rounded=0;whiteSpace=wrap;html=1;fillColor=#6d8764;strokeColor=#3A5431;fontColor=#ffffff;" parent="Wk7rJnfrZnfArUPQoWpk-91" vertex="1">
                    <mxGeometry x="320" y="40" width="80" height="40" as="geometry"/>
                </mxCell>
                <mxCell id="Wk7rJnfrZnfArUPQoWpk-95" value="std_id (FK)" style="rounded=0;whiteSpace=wrap;html=1;fillColor=#6d8764;strokeColor=#3A5431;fontColor=#ffffff;" parent="Wk7rJnfrZnfArUPQoWpk-91" vertex="1">
                    <mxGeometry x="160" y="40" width="80" height="40" as="geometry"/>
                </mxCell>
                <mxCell id="Wk7rJnfrZnfArUPQoWpk-22" value="" style="group" parent="1" vertex="1" connectable="0">
                    <mxGeometry x="560" y="160" width="160" height="80" as="geometry"/>
                </mxCell>
                <mxCell id="Wk7rJnfrZnfArUPQoWpk-23" value="" style="rounded=0;whiteSpace=wrap;html=1;fillColor=#76608a;strokeColor=#432D57;fontColor=#ffffff;" parent="Wk7rJnfrZnfArUPQoWpk-22" vertex="1">
                    <mxGeometry y="40" width="160" height="40" as="geometry"/>
                </mxCell>
                <mxCell id="Wk7rJnfrZnfArUPQoWpk-24" value="Student" style="rounded=0;whiteSpace=wrap;html=1;fillColor=#76608a;strokeColor=#432D57;fontColor=#ffffff;" parent="Wk7rJnfrZnfArUPQoWpk-22" vertex="1">
                    <mxGeometry width="120" height="40" as="geometry"/>
                </mxCell>
                <mxCell id="Wk7rJnfrZnfArUPQoWpk-25" value="&lt;u&gt;std_id (PK)&lt;/u&gt;" style="rounded=0;whiteSpace=wrap;html=1;fillColor=#76608a;strokeColor=#432D57;fontColor=#ffffff;" parent="Wk7rJnfrZnfArUPQoWpk-22" vertex="1">
                    <mxGeometry y="40" width="80" height="40" as="geometry"/>
                </mxCell>
                <mxCell id="Wk7rJnfrZnfArUPQoWpk-26" value="user_id (FK)" style="rounded=0;whiteSpace=wrap;html=1;fillColor=#76608a;strokeColor=#432D57;fontColor=#ffffff;" parent="Wk7rJnfrZnfArUPQoWpk-22" vertex="1">
                    <mxGeometry x="80" y="40" width="80" height="40" as="geometry"/>
                </mxCell>
                <mxCell id="Wk7rJnfrZnfArUPQoWpk-104" value="" style="curved=1;endArrow=classic;html=1;rounded=0;exitX=1;exitY=0.25;exitDx=0;exitDy=0;entryX=0.5;entryY=1;entryDx=0;entryDy=0;fillColor=#0050ef;strokeColor=#001DBC;" parent="1" source="Wk7rJnfrZnfArUPQoWpk-26" target="iXEqG_oq-R5Z8Uxtua_U-19" edge="1">
                    <mxGeometry width="50" height="50" relative="1" as="geometry">
                        <mxPoint x="740" y="210" as="sourcePoint"/>
                        <mxPoint x="790" y="160" as="targetPoint"/>
                        <Array as="points">
                            <mxPoint x="790" y="210"/>
                            <mxPoint x="740" y="160"/>
                            <mxPoint x="610" y="140"/>
                            <mxPoint x="480" y="140"/>
                            <mxPoint x="220" y="160"/>
                        </Array>
                    </mxGeometry>
                </mxCell>
                <mxCell id="Wk7rJnfrZnfArUPQoWpk-105" value="" style="curved=1;endArrow=classic;html=1;rounded=0;entryX=0.75;entryY=1;entryDx=0;entryDy=0;fillColor=#0050ef;strokeColor=#001DBC;exitX=1;exitY=0.5;exitDx=0;exitDy=0;" parent="1" source="Wk7rJnfrZnfArUPQoWpk-14" target="iXEqG_oq-R5Z8Uxtua_U-19" edge="1">
                    <mxGeometry width="50" height="50" relative="1" as="geometry">
                        <mxPoint x="450" y="220" as="sourcePoint"/>
                        <mxPoint x="490" y="170" as="targetPoint"/>
                        <Array as="points">
                            <mxPoint x="540" y="210"/>
                            <mxPoint x="540" y="180"/>
                            <mxPoint x="460" y="150"/>
                        </Array>
                    </mxGeometry>
                </mxCell>
                <mxCell id="Wk7rJnfrZnfArUPQoWpk-121" value="" style="curved=1;endArrow=classic;html=1;rounded=0;exitX=1;exitY=0.25;exitDx=0;exitDy=0;fillColor=#0050ef;strokeColor=#001DBC;entryX=0.5;entryY=1;entryDx=0;entryDy=0;" parent="1" source="Wk7rJnfrZnfArUPQoWpk-71" target="Wk7rJnfrZnfArUPQoWpk-79" edge="1">
                    <mxGeometry width="50" height="50" relative="1" as="geometry">
                        <mxPoint x="455" y="490" as="sourcePoint"/>
                        <mxPoint x="50" y="360" as="targetPoint"/>
                        <Array as="points">
                            <mxPoint x="510" y="450"/>
                            <mxPoint x="430" y="410"/>
                            <mxPoint x="210" y="430"/>
                        </Array>
                    </mxGeometry>
                </mxCell>
                <mxCell id="Wk7rJnfrZnfArUPQoWpk-126" value="" style="curved=1;endArrow=classic;html=1;rounded=0;exitX=0.75;exitY=0;exitDx=0;exitDy=0;fillColor=#0050ef;strokeColor=#001DBC;entryX=0.25;entryY=1;entryDx=0;entryDy=0;" parent="1" source="Wk7rJnfrZnfArUPQoWpk-56" edge="1" target="Wk7rJnfrZnfArUPQoWpk-79">
                    <mxGeometry width="50" height="50" relative="1" as="geometry">
                        <mxPoint x="180" y="590" as="sourcePoint"/>
                        <mxPoint x="80" y="360" as="targetPoint"/>
                        <Array as="points">
                            <mxPoint x="230" y="590"/>
                            <mxPoint x="180" y="540"/>
                            <mxPoint x="40" y="550"/>
                            <mxPoint x="-130" y="570"/>
                            <mxPoint x="-20" y="390"/>
                        </Array>
                    </mxGeometry>
                </mxCell>
                <mxCell id="Wk7rJnfrZnfArUPQoWpk-128" value="" style="curved=1;endArrow=classic;html=1;rounded=0;exitX=0.75;exitY=0;exitDx=0;exitDy=0;entryX=0.5;entryY=1;entryDx=0;entryDy=0;fillColor=#0050ef;strokeColor=#001DBC;" parent="1" source="Wk7rJnfrZnfArUPQoWpk-32" target="Wk7rJnfrZnfArUPQoWpk-43" edge="1">
                    <mxGeometry width="50" height="50" relative="1" as="geometry">
                        <mxPoint x="170" y="820" as="sourcePoint"/>
                        <mxPoint x="220" y="770" as="targetPoint"/>
                        <Array as="points">
                            <mxPoint x="220" y="820"/>
                            <mxPoint x="200" y="800"/>
                            <mxPoint x="150" y="790"/>
                        </Array>
                    </mxGeometry>
                </mxCell>
                <mxCell id="Wk7rJnfrZnfArUPQoWpk-134" value="" style="curved=1;endArrow=classic;html=1;rounded=0;exitX=0.5;exitY=1;exitDx=0;exitDy=0;entryX=0;entryY=0.5;entryDx=0;entryDy=0;fillColor=#0050ef;strokeColor=#001DBC;" parent="1" source="Wk7rJnfrZnfArUPQoWpk-96" target="Wk7rJnfrZnfArUPQoWpk-79" edge="1">
                    <mxGeometry width="50" height="50" relative="1" as="geometry">
                        <mxPoint x="50" y="1070" as="sourcePoint"/>
                        <mxPoint x="100" y="1020" as="targetPoint"/>
                        <Array as="points">
                            <mxPoint x="100" y="1040"/>
                            <mxPoint x="30" y="1030"/>
                            <mxPoint x="-70" y="900"/>
                            <mxPoint x="-210" y="480"/>
                        </Array>
                    </mxGeometry>
                </mxCell>
                <mxCell id="j9Infk8hzW7JE45gwD04-11" value="" style="group" parent="1" vertex="1" connectable="0">
                    <mxGeometry x="-721" y="440" width="415.9701492537314" height="100" as="geometry"/>
                </mxCell>
                <mxCell id="j9Infk8hzW7JE45gwD04-12" value="" style="rounded=0;whiteSpace=wrap;html=1;fillColor=#647687;strokeColor=#314354;fontColor=#ffffff;" parent="j9Infk8hzW7JE45gwD04-11" vertex="1">
                    <mxGeometry y="40" width="400" height="40" as="geometry"/>
                </mxCell>
                <mxCell id="j9Infk8hzW7JE45gwD04-13" value="Discount" style="rounded=0;whiteSpace=wrap;html=1;fillColor=#647687;strokeColor=#314354;fontColor=#ffffff;" parent="j9Infk8hzW7JE45gwD04-11" vertex="1">
                    <mxGeometry width="121.7910447761194" height="40" as="geometry"/>
                </mxCell>
                <mxCell id="j9Infk8hzW7JE45gwD04-14" value="&lt;u&gt;dicount_id&lt;/u&gt;" style="rounded=0;whiteSpace=wrap;html=1;fillColor=#647687;strokeColor=#314354;fontColor=#ffffff;" parent="j9Infk8hzW7JE45gwD04-11" vertex="1">
                    <mxGeometry y="40" width="81.19402985074628" height="40" as="geometry"/>
                </mxCell>
                <mxCell id="j9Infk8hzW7JE45gwD04-15" value="payment_id&lt;br&gt;(FK)" style="rounded=0;whiteSpace=wrap;html=1;fillColor=#647687;strokeColor=#314354;fontColor=#ffffff;" parent="j9Infk8hzW7JE45gwD04-11" vertex="1">
                    <mxGeometry x="81.19402985074628" y="40" width="81.19402985074628" height="40" as="geometry"/>
                </mxCell>
                <mxCell id="j9Infk8hzW7JE45gwD04-16" value="discount_name" style="rounded=0;whiteSpace=wrap;html=1;fillColor=#647687;strokeColor=#314354;fontColor=#ffffff;" parent="j9Infk8hzW7JE45gwD04-11" vertex="1">
                    <mxGeometry x="162.39" y="40" width="97.61" height="40" as="geometry"/>
                </mxCell>
                <mxCell id="j9Infk8hzW7JE45gwD04-17" value="start_date" style="rounded=0;whiteSpace=wrap;html=1;fillColor=#647687;strokeColor=#314354;fontColor=#ffffff;" parent="j9Infk8hzW7JE45gwD04-11" vertex="1">
                    <mxGeometry x="253.5820895522388" y="40" width="81.19402985074628" height="40" as="geometry"/>
                </mxCell>
                <mxCell id="j9Infk8hzW7JE45gwD04-18" value="end_date" style="rounded=0;whiteSpace=wrap;html=1;fillColor=#647687;strokeColor=#314354;fontColor=#ffffff;" parent="j9Infk8hzW7JE45gwD04-11" vertex="1">
                    <mxGeometry x="334.7761194029851" y="40" width="81.19402985074628" height="40" as="geometry"/>
                </mxCell>
                <mxCell id="j9Infk8hzW7JE45gwD04-20" value="" style="curved=1;endArrow=classic;html=1;rounded=0;exitX=0.75;exitY=0;exitDx=0;exitDy=0;entryX=0;entryY=1;entryDx=0;entryDy=0;fillColor=#0050ef;strokeColor=#001DBC;" parent="1" source="Wk7rJnfrZnfArUPQoWpk-44" target="Wk7rJnfrZnfArUPQoWpk-79" edge="1">
                    <mxGeometry width="50" height="50" relative="1" as="geometry">
                        <mxPoint x="190" y="710" as="sourcePoint"/>
                        <mxPoint x="240" y="660" as="targetPoint"/>
                        <Array as="points">
                            <mxPoint x="240" y="710"/>
                            <mxPoint x="160" y="660"/>
                            <mxPoint x="-10" y="660"/>
                            <mxPoint x="-170" y="610"/>
                            <mxPoint x="-70" y="420"/>
                        </Array>
                    </mxGeometry>
                </mxCell>
                <mxCell id="j9Infk8hzW7JE45gwD04-24" value="" style="curved=1;endArrow=classic;html=1;rounded=0;fillColor=#0050ef;strokeColor=#001DBC;exitX=1;exitY=0.5;exitDx=0;exitDy=0;entryX=0;entryY=0.25;entryDx=0;entryDy=0;" parent="1" edge="1" target="Wk7rJnfrZnfArUPQoWpk-79" source="11">
                    <mxGeometry width="50" height="50" relative="1" as="geometry">
                        <mxPoint x="-88.81" y="355" as="sourcePoint"/>
                        <mxPoint x="40" y="330" as="targetPoint"/>
                        <Array as="points">
                            <mxPoint x="-38.81" y="355"/>
                            <mxPoint x="-88.81" y="305"/>
                        </Array>
                    </mxGeometry>
                </mxCell>
                <mxCell id="j9Infk8hzW7JE45gwD04-25" value="" style="curved=1;endArrow=classic;html=1;rounded=0;exitX=0.75;exitY=0;exitDx=0;exitDy=0;entryX=0.75;entryY=1;entryDx=0;entryDy=0;fillColor=#0050ef;strokeColor=#001DBC;" parent="1" source="j9Infk8hzW7JE45gwD04-15" target="j9Infk8hzW7JE45gwD04-5" edge="1">
                    <mxGeometry width="50" height="50" relative="1" as="geometry">
                        <mxPoint x="-450" y="440" as="sourcePoint"/>
                        <mxPoint x="-400" y="390" as="targetPoint"/>
                        <Array as="points">
                            <mxPoint x="-400" y="440"/>
                            <mxPoint x="-450" y="390"/>
                        </Array>
                    </mxGeometry>
                </mxCell>
                <mxCell id="12" value="" style="group" vertex="1" connectable="0" parent="1">
                    <mxGeometry x="-721" y="280" width="592.3801492537314" height="80" as="geometry"/>
                </mxCell>
                <mxCell id="j9Infk8hzW7JE45gwD04-23" value="" style="group" parent="12" vertex="1" connectable="0">
                    <mxGeometry width="511.19014925373136" height="80" as="geometry"/>
                </mxCell>
                <mxCell id="j9Infk8hzW7JE45gwD04-2" value="" style="group" parent="j9Infk8hzW7JE45gwD04-23" vertex="1" connectable="0">
                    <mxGeometry width="405.9701492537314" height="80" as="geometry"/>
                </mxCell>
                <mxCell id="j9Infk8hzW7JE45gwD04-3" value="" style="rounded=0;whiteSpace=wrap;html=1;fillColor=#647687;strokeColor=#314354;fontColor=#ffffff;" parent="j9Infk8hzW7JE45gwD04-2" vertex="1">
                    <mxGeometry y="40" width="400" height="40" as="geometry"/>
                </mxCell>
                <mxCell id="j9Infk8hzW7JE45gwD04-4" value="Payment" style="rounded=0;whiteSpace=wrap;html=1;fillColor=#647687;strokeColor=#314354;fontColor=#ffffff;" parent="j9Infk8hzW7JE45gwD04-2" vertex="1">
                    <mxGeometry width="121.7910447761194" height="40" as="geometry"/>
                </mxCell>
                <mxCell id="j9Infk8hzW7JE45gwD04-5" value="&lt;u&gt;payment_id&lt;/u&gt;" style="rounded=0;whiteSpace=wrap;html=1;fillColor=#647687;strokeColor=#314354;fontColor=#ffffff;" parent="j9Infk8hzW7JE45gwD04-2" vertex="1">
                    <mxGeometry y="40" width="81.19402985074628" height="40" as="geometry"/>
                </mxCell>
                <mxCell id="j9Infk8hzW7JE45gwD04-6" value="discount_id&lt;br&gt;(FK)" style="rounded=0;whiteSpace=wrap;html=1;fillColor=#647687;strokeColor=#314354;fontColor=#ffffff;" parent="j9Infk8hzW7JE45gwD04-2" vertex="1">
                    <mxGeometry x="81.19402985074628" y="40" width="81.19402985074628" height="40" as="geometry"/>
                </mxCell>
                <mxCell id="j9Infk8hzW7JE45gwD04-7" value="payment_method" style="rounded=0;whiteSpace=wrap;html=1;fillColor=#647687;strokeColor=#314354;fontColor=#ffffff;" parent="j9Infk8hzW7JE45gwD04-2" vertex="1">
                    <mxGeometry x="162.39" y="40" width="107.61" height="40" as="geometry"/>
                </mxCell>
                <mxCell id="j9Infk8hzW7JE45gwD04-8" value="due_date" style="rounded=0;whiteSpace=wrap;html=1;fillColor=#647687;strokeColor=#314354;fontColor=#ffffff;" parent="j9Infk8hzW7JE45gwD04-2" vertex="1">
                    <mxGeometry x="270.00208955223883" y="40" width="81.19402985074628" height="40" as="geometry"/>
                </mxCell>
                <mxCell id="j9Infk8hzW7JE45gwD04-9" value="price" style="rounded=0;whiteSpace=wrap;html=1;fillColor=#647687;strokeColor=#314354;fontColor=#ffffff;" parent="j9Infk8hzW7JE45gwD04-2" vertex="1">
                    <mxGeometry x="349.9961194029851" y="40" width="81.19402985074628" height="40" as="geometry"/>
                </mxCell>
                <mxCell id="j9Infk8hzW7JE45gwD04-22" value="admin_id (FK)" style="rounded=0;whiteSpace=wrap;html=1;fillColor=#647687;strokeColor=#314354;fontColor=#ffffff;" parent="j9Infk8hzW7JE45gwD04-23" vertex="1">
                    <mxGeometry x="429.9961194029851" y="40" width="81.19402985074628" height="40" as="geometry"/>
                </mxCell>
                <mxCell id="11" value="course_id(FK)" style="rounded=0;whiteSpace=wrap;html=1;fillColor=#647687;strokeColor=#314354;fontColor=#ffffff;" vertex="1" parent="12">
                    <mxGeometry x="511.18611940298507" y="40" width="81.19402985074628" height="40" as="geometry"/>
                </mxCell>
                <mxCell id="14" value="" style="curved=1;endArrow=classic;html=1;entryX=0;entryY=0.5;entryDx=0;entryDy=0;fillColor=#0050ef;strokeColor=#001DBC;exitX=0.5;exitY=0;exitDx=0;exitDy=0;" edge="1" parent="1" source="j9Infk8hzW7JE45gwD04-22" target="iXEqG_oq-R5Z8Uxtua_U-34">
                    <mxGeometry width="50" height="50" relative="1" as="geometry">
                        <mxPoint x="-220" y="290" as="sourcePoint"/>
                        <mxPoint x="-170" y="240" as="targetPoint"/>
                        <Array as="points">
                            <mxPoint x="-170" y="290"/>
                            <mxPoint x="-220" y="240"/>
                        </Array>
                    </mxGeometry>
                </mxCell>
                <mxCell id="16" value="" style="curved=1;endArrow=classic;html=1;exitX=0.5;exitY=0;exitDx=0;exitDy=0;fillColor=#0050ef;strokeColor=#001DBC;" edge="1" parent="1" source="Wk7rJnfrZnfArUPQoWpk-33" target="Wk7rJnfrZnfArUPQoWpk-25">
                    <mxGeometry width="50" height="50" relative="1" as="geometry">
                        <mxPoint x="230" y="870" as="sourcePoint"/>
                        <mxPoint x="590" y="174.39996337890625" as="targetPoint"/>
                        <Array as="points">
                            <mxPoint x="280" y="870"/>
                            <mxPoint x="230" y="820"/>
                            <mxPoint x="670" y="800"/>
                        </Array>
                    </mxGeometry>
                </mxCell>
                <mxCell id="18" value="" style="curved=1;endArrow=classic;html=1;exitX=0.5;exitY=0;exitDx=0;exitDy=0;entryX=0.75;entryY=1;entryDx=0;entryDy=0;fillColor=#0050ef;strokeColor=#001DBC;" edge="1" parent="1" source="Wk7rJnfrZnfArUPQoWpk-95" target="Wk7rJnfrZnfArUPQoWpk-25">
                    <mxGeometry width="50" height="50" relative="1" as="geometry">
                        <mxPoint x="240" y="990" as="sourcePoint"/>
                        <mxPoint x="290" y="940" as="targetPoint"/>
                        <Array as="points">
                            <mxPoint x="290" y="990"/>
                            <mxPoint x="240" y="940"/>
                            <mxPoint x="720" y="870"/>
                        </Array>
                    </mxGeometry>
                </mxCell>
                <mxCell id="22" value="" style="curved=1;endArrow=classic;html=1;fillColor=#0050ef;strokeColor=#001DBC;exitX=0.75;exitY=0;exitDx=0;exitDy=0;entryX=0.25;entryY=1;entryDx=0;entryDy=0;" edge="1" parent="1" source="7" target="Wk7rJnfrZnfArUPQoWpk-25">
                    <mxGeometry width="50" height="50" relative="1" as="geometry">
                        <mxPoint x="520" y="340" as="sourcePoint"/>
                        <mxPoint x="580" y="240" as="targetPoint"/>
                        <Array as="points">
                            <mxPoint x="560" y="330"/>
                            <mxPoint x="520" y="290"/>
                        </Array>
                    </mxGeometry>
                </mxCell>
            </root>
        </mxGraphModel>
    </diagram>
</mxfile>